# xmcd CD database file
#
# Track frame offsets:
#	150
#	18017
#	32477
#	46467
#	61827
#	77820
#	91085
#	105257
#	116025
#	128232
#	140275
#	153672
#	168265
#	181309
#	195400
#
# Disc length: 2796 seconds
#
# Revision: 0
# Processed by: cddbd v1.5.1PL0 Copyright (c) Steve Scherf et al.
# Submitted via: CDex 1.51
#
DISCID=b10aea0f
DTITLE=100 Folk Celsius - Nyunyó a hunyó
DYEAR=1995
DGENRE=Country
TTITLE0=Nyunyó a hunyó
TTITLE1=Ciki
TTITLE2=Mindig jót akarok
TTITLE3=Róka Roland
TTITLE4=Elemes játékok
TTITLE5=Hangya a városban
TTITLE6=Sok dolga van a gólyának
TTITLE7=Tréfa-répa
TTITLE8=A kutyám meg én
TTITLE9=Énekelj kishaver
TTITLE10=Rágógumi
TTITLE11=Balta család
TTITLE12=Orrtyû
TTITLE13=Tollasbál
TTITLE14=Az ígéret szép szó
EXTD=YEAR: 1995
EXTT0=
EXTT1=
EXTT2=
EXTT3=
EXTT4=
EXTT5=
EXTT6=
EXTT7=
EXTT8=
EXTT9=
EXTT10=
EXTT11=
EXTT12=
EXTT13=
EXTT14=
PLAYORDER=
